# xmcd CD database file
#
# Track frame offsets:
#	150
#	13299
#	28558
#	39245
#	50464
#	62010
#	80343
#	90862
#	105832
#	117383
#	132454
#	143400
#	156373
#	169681
#	185324
#	196959
#	210302
#	226227
#	240982
#	255087
#	269983
#	285722
#	296224
#	310933
#	321643
#
# Disc length: 4439 seconds
#
# Revision: 0
# Processed by: cddbd v1.5.2PL0 Copyright (c) Steve Scherf et al.
# Submitted via: CDex 1.51
#
DISCID=58115519
DTITLE=Kenny Rogers - For The Good Times
DYEAR=2005
DGENRE=Country
TTITLE0=Ruby Don't Take Your Love To Town
TTITLE1=For The Good Times
TTITLE2=She Even Woke Me Up To Say Goodbye
TTITLE3=Hurry Up Love
TTITLE4=Me and Bobby McGee
TTITLE5=The King Of Oak Street
TTITLE6=The Ticket To Nowhere
TTITLE7=Tell It All Brother
TTITLE8=Poem For My Little Lady
TTITLE9=Conditions (Just Dropped In)
TTITLE10=Always Leaving Always Gone
TTITLE11=Run Through Your Mind
TTITLE12=Sleep Comes Easy
TTITLE13=Tulsa Turnaround
TTITLE14=What Am I Gonna Do
TTITLE15=But I Know I Love You
TTITLE16=I Found A Reason
TTITLE17=Church Without A Name
TTITLE18=I Was The Loser
TTITLE19=Heed The Call
TTITLE20=The Way It Used To Be
TTITLE21=We All Got To Help Each Other
TTITLE22=After All (I Live My Life)
TTITLE23=Homemade Lies
TTITLE24=If Wishes Were Horses
EXTD=YEAR: 2005
EXTT0=
EXTT1=
EXTT2=
EXTT3=
EXTT4=
EXTT5=
EXTT6=
EXTT7=
EXTT8=
EXTT9=
EXTT10=
EXTT11=
EXTT12=
EXTT13=
EXTT14=
EXTT15=
EXTT16=
EXTT17=
EXTT18=
EXTT19=
EXTT20=
EXTT21=
EXTT22=
EXTT23=
EXTT24=
PLAYORDER=
